<?xml version="1.0" encoding="UTF-8" standalone="no"?><!DOCTYPE svg PUBLIC "-//W3C//DTD SVG 1.1//EN" "http://www.w3.org/Graphics/SVG/1.1/DTD/svg11.dtd"><svg width="100%" height="100%" viewBox="0 0 417 417" version="1.1" xmlns="http://www.w3.org/2000/svg" xmlns:xlink="http://www.w3.org/1999/xlink" xml:space="preserve" xmlns:serif="http://www.serif.com/" style="fill-rule:evenodd;clip-rule:evenodd;stroke-linejoin:round;stroke-miterlimit:2;"><g><path d="M304.241,217.149c-11.73,-11.848 -30.872,-11.944 -42.72,-0.214l-42.934,42.507c-11.848,11.73 -11.944,30.872 -0.214,42.72l79.453,80.253c11.73,11.848 30.872,11.944 42.721,0.214l42.934,-42.507c11.848,-11.73 11.944,-30.872 0.214,-42.72l-79.454,-80.253Z" style="fill:#665855;"/><clipPath id="_clip1"><path d="M304.241,217.149c-11.73,-11.848 -30.872,-11.944 -42.72,-0.214l-42.934,42.507c-11.848,11.73 -11.944,30.872 -0.214,42.72l79.453,80.253c11.73,11.848 30.872,11.944 42.721,0.214l42.934,-42.507c11.848,-11.73 11.944,-30.872 0.214,-42.72l-79.454,-80.253Z"/></clipPath><g clip-path="url(#_clip1)"><path d="M388.684,270.833l-117.851,117.851l44.649,44.649l117.851,-117.851l-44.649,-44.649Z" style="fill:#ffc83c;"/></g><path d="M126.95,131.116c16.171,-16.171 227.679,28.499 239.07,68.344c11.39,39.845 -130.882,182.117 -170.727,170.726c-39.845,-11.39 -84.515,-222.899 -68.343,-239.07Z" style="fill:#ef6a5d;"/><path d="M54.132,52.88c20.372,-20.372 291.327,40.403 306.577,91.499c15.25,51.096 -163.982,230.328 -215.078,215.078c-51.097,-15.25 -111.871,-286.205 -91.499,-306.577Z" style="fill:#665855;"/><clipPath id="_clip2"><path d="M54.132,52.88c20.372,-20.372 291.327,40.403 306.577,91.499c15.25,51.096 -163.982,230.328 -215.078,215.078c-51.097,-15.25 -111.871,-286.205 -91.499,-306.577Z"/></clipPath><g clip-path="url(#_clip2)"><path d="M309.778,42.149c-0,-0 -2.593,175.666 -47.278,220.351c-44.685,44.685 -220.833,47.76 -220.833,47.76l110.573,110.573l268.111,-268.111l-110.573,-110.573Z" style="fill:#ffc83c;"/></g></g></svg>