<?xml version="1.0" encoding="UTF-8" standalone="no"?><!DOCTYPE svg PUBLIC "-//W3C//DTD SVG 1.1//EN" "http://www.w3.org/Graphics/SVG/1.1/DTD/svg11.dtd"><svg width="100%" height="100%" viewBox="0 0 417 417" version="1.1" xmlns="http://www.w3.org/2000/svg" xmlns:xlink="http://www.w3.org/1999/xlink" xml:space="preserve" xmlns:serif="http://www.serif.com/" style="fill-rule:evenodd;clip-rule:evenodd;stroke-linejoin:round;stroke-miterlimit:2;"><g><path d="M252.952,168.54c7.022,-12.388 2.666,-22.445 -9.721,-22.445l-90.832,0c-12.387,0 -28.145,10.057 -35.168,22.445l-25.448,44.888c-7.022,12.387 -2.666,22.444 9.721,22.444l90.832,0c12.387,0 28.145,-10.057 35.168,-22.444l25.448,-44.888Z" style="fill:#655754;"/><path d="M396.644,168.54c7.022,-12.388 2.666,-22.445 -9.721,-22.445l-90.832,0c-12.387,0 -28.145,10.057 -35.168,22.445l-25.447,44.888c-7.023,12.387 -2.667,22.444 9.72,22.444l90.832,0c12.387,0 28.146,-10.057 35.168,-22.444l25.448,-44.888Z" style="fill:#655754;"/><path d="M237.937,126.062c6.768,-11.94 2.57,-21.633 -9.37,-21.633l-87.549,-0c-11.939,-0 -27.128,9.693 -33.897,21.633l-24.528,43.266c-6.768,11.94 -2.57,21.633 9.37,21.633l87.549,0c11.939,0 27.128,-9.693 33.897,-21.633l24.528,-43.266Z" style="fill:#ffc733;"/><path d="M376.435,126.062c6.769,-11.94 2.571,-21.633 -9.369,-21.633l-87.549,-0c-11.94,-0 -27.128,9.693 -33.897,21.633l-24.528,43.266c-6.768,11.94 -2.57,21.633 9.369,21.633l87.549,0c11.94,0 27.129,-9.693 33.897,-21.633l24.528,-43.266Z" style="fill:#e7675a;"/><path d="M350.836,278.131c7.061,-12.455 2.682,-22.567 -9.773,-22.567l-241.707,-0c-12.455,-0 -28.3,10.112 -35.361,22.567l-25.587,45.135c-7.061,12.455 -2.682,22.567 9.774,22.567l241.706,0c12.456,0 28.3,-10.112 35.361,-22.567l25.587,-45.135Z" style="fill:#655754;"/><path d="M329.615,224.784c6.768,-11.94 2.57,-21.633 -9.369,-21.633l-231.7,-0c-11.94,-0 -27.129,9.693 -33.897,21.633l-24.528,43.266c-6.769,11.94 -2.571,21.633 9.369,21.633l231.7,0c11.939,0 27.128,-9.693 33.897,-21.633l24.528,-43.266Z" style="fill:#ebeceb;"/></g></svg>