<?xml version="1.0" encoding="UTF-8" standalone="no"?><!DOCTYPE svg PUBLIC "-//W3C//DTD SVG 1.1//EN" "http://www.w3.org/Graphics/SVG/1.1/DTD/svg11.dtd"><svg width="100%" height="100%" viewBox="0 0 417 417" version="1.1" xmlns="http://www.w3.org/2000/svg" xmlns:xlink="http://www.w3.org/1999/xlink" xml:space="preserve" xmlns:serif="http://www.serif.com/" style="fill-rule:evenodd;clip-rule:evenodd;stroke-linejoin:round;stroke-miterlimit:2;"><g><path d="M333.333,344.143l0,-138.988l-250,-0l0,138.988c0,29.074 28.006,52.679 62.5,52.679l125,-0c34.495,-0 62.5,-23.605 62.5,-52.679Z" style="fill:#e8675a;"/><clipPath id="_clip1"><path d="M333.333,344.143l0,-138.988l-250,-0l0,138.988c0,29.074 28.006,52.679 62.5,52.679l125,-0c34.495,-0 62.5,-23.605 62.5,-52.679Z"/></clipPath><g clip-path="url(#_clip1)"><rect x="166.667" y="192.655" width="83.333" height="204.167" style="fill:#ffc733;"/><rect x="83.333" y="192.655" width="83.333" height="204.167" style="fill:#665754;"/></g><g><circle cx="208.333" cy="43.834" r="16.679" style="fill:#e8675a;"/><path d="M83.333,90.226l0,52.679l250,-0l0,-52.679l0,22.024c0,-29.074 -65.11,-68.416 -125,-68.416c-59.889,0 -125,39.342 -125,68.416l0,-22.024Z" style="fill:#e8675a;"/><path d="M375,118.225c0,-4.541 -3.686,-8.227 -8.227,-8.227l-316.88,0c-4.54,0 -8.226,3.686 -8.226,8.227l-0,16.453c-0,4.541 3.686,8.227 8.226,8.227l316.88,-0c4.541,-0 8.227,-3.686 8.227,-8.227l0,-16.453Z" style="fill:#665754;"/></g><rect x="83.333" y="163.488" width="250" height="41.667" style="fill:#665754;"/></g></svg>