<?xml version="1.0" encoding="UTF-8" standalone="no"?><!DOCTYPE svg PUBLIC "-//W3C//DTD SVG 1.1//EN" "http://www.w3.org/Graphics/SVG/1.1/DTD/svg11.dtd"><svg width="100%" height="100%" viewBox="0 0 417 417" version="1.1" xmlns="http://www.w3.org/2000/svg" xmlns:xlink="http://www.w3.org/1999/xlink" xml:space="preserve" xmlns:serif="http://www.serif.com/" style="fill-rule:evenodd;clip-rule:evenodd;stroke-linejoin:round;stroke-miterlimit:2;"><path d="M180.666,133.418l-53.445,-0c0,-0 54.815,-82.223 82.223,-82.223c27.408,-0 82.223,82.223 82.223,82.223l-53.445,-0c-0,-0 9.593,48.924 -0,58.709c-8.729,8.904 -48.827,8.904 -57.556,0c-9.593,-9.785 0,-58.709 0,-58.709Z" style="fill:#e9675a;"/><path d="M290.041,157.138c1.057,3.489 1.626,7.189 1.626,11.02l-0,34.32c-0,20.969 -17.025,37.994 -37.994,37.994l-90.68,-0c-20.969,-0 -37.993,-17.025 -37.993,-37.994l0,-34.32c0,-3.831 0.568,-7.531 1.626,-11.02l-32.876,0c-28.746,0 -52.083,23.338 -52.083,52.084l-0,104.166c-0,28.746 23.337,52.084 52.083,52.084l229.167,-0c28.745,-0 52.083,-23.338 52.083,-52.084l0,-104.166c0,-28.746 -23.338,-52.084 -52.083,-52.084l-32.876,0Z" style="fill:#665754;"/><clipPath id="_clip1"><path d="M290.041,157.138c1.057,3.489 1.626,7.189 1.626,11.02l-0,34.32c-0,20.969 -17.025,37.994 -37.994,37.994l-90.68,-0c-20.969,-0 -37.993,-17.025 -37.993,-37.994l0,-34.32c0,-3.831 0.568,-7.531 1.626,-11.02l-32.876,0c-28.746,0 -52.083,23.338 -52.083,52.084l-0,104.166c-0,28.746 23.337,52.084 52.083,52.084l229.167,-0c28.745,-0 52.083,-23.338 52.083,-52.084l0,-104.166c0,-28.746 -23.338,-52.084 -52.083,-52.084l-32.876,0Z"/></clipPath><g clip-path="url(#_clip1)"><rect x="41.667" y="299.258" width="333.333" height="66.214" style="fill:#ffc733;"/></g></svg>