<?xml version="1.0" encoding="UTF-8" standalone="no"?><!DOCTYPE svg PUBLIC "-//W3C//DTD SVG 1.1//EN" "http://www.w3.org/Graphics/SVG/1.1/DTD/svg11.dtd"><svg width="100%" height="100%" viewBox="0 0 417 417" version="1.1" xmlns="http://www.w3.org/2000/svg" xmlns:xlink="http://www.w3.org/1999/xlink" xml:space="preserve" xmlns:serif="http://www.serif.com/" style="fill-rule:evenodd;clip-rule:evenodd;stroke-linejoin:round;stroke-miterlimit:2;"><g><g><path d="M373.373,214.779c24.392,-24.391 24.392,-63.997 0,-88.388l-88.388,-88.388c-24.392,-24.392 -63.997,-24.392 -88.389,-0l-109.012,109.012c-24.391,24.391 -24.391,63.997 0,88.388l88.388,88.389c24.392,24.391 63.997,24.391 88.389,-0l109.012,-109.013Z" style="fill:#635552;"/><clipPath id="_clip1"><path d="M373.373,214.779c24.392,-24.391 24.392,-63.997 0,-88.388l-88.388,-88.388c-24.392,-24.392 -63.997,-24.392 -88.389,-0l-109.012,109.012c-24.391,24.391 -24.391,63.997 0,88.388l88.388,88.389c24.392,24.391 63.997,24.391 88.389,-0l109.012,-109.013Z"/></clipPath><g clip-path="url(#_clip1)"><path d="M417.567,170.585l-58.925,-58.925l-197.401,197.4l58.926,58.926l197.4,-197.401Z" style="fill:#eb695d;"/></g><path d="M358.642,111.66l-58.926,-58.926l-197.401,197.401l58.926,58.925l197.401,-197.4Z" style="fill:#ffc73e;"/></g><path d="M90.53,320.845c16.199,16.199 166.411,39.83 164.337,12.44c-2.073,-27.389 -149.387,-174.703 -176.776,-176.776c-27.39,-2.074 -3.759,148.138 12.439,164.336Z" style="fill:#e8e9e8;"/><path d="M117.047,323.792c4.065,-4.066 4.065,-10.666 -0,-14.732l-14.732,-14.731c-4.065,-4.065 -10.666,-4.065 -14.731,-0l-17.678,17.678c-4.065,4.065 -4.065,10.666 0,14.731l14.732,14.731c4.065,4.066 10.666,4.066 14.731,0l17.678,-17.677Z" style="fill:#635552;"/></g></svg>