<?xml version="1.0" encoding="UTF-8" standalone="no"?><!DOCTYPE svg PUBLIC "-//W3C//DTD SVG 1.1//EN" "http://www.w3.org/Graphics/SVG/1.1/DTD/svg11.dtd"><svg width="100%" height="100%" viewBox="0 0 417 417" version="1.1" xmlns="http://www.w3.org/2000/svg" xmlns:xlink="http://www.w3.org/1999/xlink" xml:space="preserve" xmlns:serif="http://www.serif.com/" style="fill-rule:evenodd;clip-rule:evenodd;stroke-linejoin:round;stroke-miterlimit:2;"><path d="M375,125c0,-45.993 -37.34,-83.333 -83.333,-83.333l-166.667,-0c-45.993,-0 -83.333,37.34 -83.333,83.333l-0,166.667c-0,45.993 37.34,83.333 83.333,83.333l166.667,0c45.993,0 83.333,-37.34 83.333,-83.333l0,-166.667Z" style="fill:#655653;"/><path d="M310.417,256.25c-0,-14.948 -12.136,-27.083 -27.084,-27.083l-150,-0c-14.947,-0 -27.083,12.135 -27.083,27.083l-0,54.167c-0,14.947 12.136,27.083 27.083,27.083l150,-0c14.948,-0 27.084,-12.136 27.084,-27.083l-0,-54.167Z" style="fill:#ffc733;"/><g><path d="M289.583,256.25c0,-3.449 -2.8,-6.25 -6.25,-6.25l-150,0c-3.449,0 -6.25,2.801 -6.25,6.25l0,12.5c0,3.449 2.801,6.25 6.25,6.25l150,0c3.45,0 6.25,-2.801 6.25,-6.25l0,-12.5Z" style="fill:#e9665b;"/><path d="M289.583,297.917c0,-3.45 -2.8,-6.25 -6.25,-6.25l-150,-0c-3.449,-0 -6.25,2.8 -6.25,6.25l0,12.5c0,3.449 2.801,6.25 6.25,6.25l150,-0c3.45,-0 6.25,-2.801 6.25,-6.25l0,-12.5Z" style="fill:#e9665b;"/></g><path d="M329.167,104.167c-0,-16.098 -13.069,-29.167 -29.167,-29.167l-183.333,0c-16.098,0 -29.167,13.069 -29.167,29.167l0,58.333c0,16.098 13.069,29.167 29.167,29.167l183.333,-0c16.098,-0 29.167,-13.069 29.167,-29.167l-0,-58.333Z" style="fill:#ebecec;"/><clipPath id="_clip1"><path d="M329.167,104.167c-0,-16.098 -13.069,-29.167 -29.167,-29.167l-183.333,0c-16.098,0 -29.167,13.069 -29.167,29.167l0,58.333c0,16.098 13.069,29.167 29.167,29.167l183.333,-0c16.098,-0 29.167,-13.069 29.167,-29.167l-0,-58.333Z"/></clipPath><g clip-path="url(#_clip1)"><rect x="66.667" y="62.5" width="37.5" height="145.833" style="fill:#ffc733;"/></g><path d="M308.333,113.542c0,-5.175 -4.2,-9.375 -9.375,-9.375l-18.75,-0c-5.174,-0 -9.375,4.2 -9.375,9.375l0,43.75c0,5.174 4.201,9.375 9.375,9.375l18.75,-0c5.175,-0 9.375,-4.201 9.375,-9.375l0,-43.75Z" style="fill:#e9665b;"/></svg>