<?xml version="1.0" encoding="UTF-8" standalone="no"?><!DOCTYPE svg PUBLIC "-//W3C//DTD SVG 1.1//EN" "http://www.w3.org/Graphics/SVG/1.1/DTD/svg11.dtd"><svg width="100%" height="100%" viewBox="0 0 417 417" version="1.1" xmlns="http://www.w3.org/2000/svg" xmlns:xlink="http://www.w3.org/1999/xlink" xml:space="preserve" xmlns:serif="http://www.serif.com/" style="fill-rule:evenodd;clip-rule:evenodd;stroke-linejoin:round;stroke-miterlimit:2;"><path d="M179.167,258.125l-0,100.208c-0,0 -154.167,-129.111 -154.167,-154.166c0,-25.055 154.167,-154.167 154.167,-154.167l-0,100.208c-0,0 170.139,-17.986 204.166,0c33.484,17.699 33.484,90.218 0,107.917c-34.027,17.986 -204.166,-0 -204.166,-0Z" style="fill:#665854;"/><clipPath id="_clip1"><path d="M179.167,258.125l-0,100.208c-0,0 -154.167,-129.111 -154.167,-154.166c0,-25.055 154.167,-154.167 154.167,-154.167l-0,100.208c-0,0 170.139,-17.986 204.166,0c33.484,17.699 33.484,90.218 0,107.917c-34.027,17.986 -204.166,-0 -204.166,-0Z"/></clipPath><g clip-path="url(#_clip1)"><rect x="354.167" y="41.667" width="58.333" height="354.167" style="fill:#e8675a;"/><path d="M-17.708,208.333c-0,-25.694 102.083,-77.083 102.083,-77.083l0,154.167c0,-0 -102.083,-51.389 -102.083,-77.084Z" style="fill:#e8675a;"/></g><g><g><path d="M307.639,184.964c3.175,-3.174 3.175,-8.33 0,-11.505l-11.505,-11.505c-3.175,-3.175 -8.33,-3.175 -11.505,0l-61.414,61.415c-3.175,3.175 -3.175,8.33 -0,11.505l11.505,11.505c3.174,3.175 8.33,3.175 11.505,-0l61.414,-61.415Z" style="fill:#ffc632;"/><path d="M246.225,161.954c-3.175,-3.175 -8.331,-3.175 -11.505,0l-11.505,11.505c-3.175,3.175 -3.175,8.331 -0,11.505l61.414,61.415c3.175,3.175 8.33,3.175 11.505,-0l11.505,-11.505c3.175,-3.175 3.175,-8.33 0,-11.505l-61.414,-61.415Z" style="fill:#ffc632;"/></g></g></svg>