<?xml version="1.0" encoding="UTF-8" standalone="no"?><!DOCTYPE svg PUBLIC "-//W3C//DTD SVG 1.1//EN" "http://www.w3.org/Graphics/SVG/1.1/DTD/svg11.dtd"><svg width="100%" height="100%" viewBox="0 0 417 417" version="1.1" xmlns="http://www.w3.org/2000/svg" xmlns:xlink="http://www.w3.org/1999/xlink" xml:space="preserve" xmlns:serif="http://www.serif.com/" style="fill-rule:evenodd;clip-rule:evenodd;stroke-linejoin:round;stroke-miterlimit:2;"><g><g><path d="M218.869,46.575l-176.777,176.777l172.357,172.357l176.777,-176.777l-172.357,-172.357Z" style="fill:#665854;"/><path d="M102.491,106.974c48.783,-48.783 100.27,-76.507 114.905,-61.872c14.635,14.635 -13.089,66.122 -61.872,114.905c-48.783,48.782 -100.27,76.506 -114.905,61.871c-14.635,-14.634 13.089,-66.122 61.872,-114.904Z" style="fill:#e8e9e8;"/><path d="M240.425,69.212c1.326,0.612 2.492,1.411 3.487,2.406c14.635,14.635 -13.089,66.122 -61.872,114.905c-48.783,48.783 -100.27,76.507 -114.905,61.872c-0.995,-0.995 -1.794,-2.161 -2.405,-3.487c18.138,8.361 65.952,-18.812 111.418,-64.278c45.465,-45.465 72.639,-93.28 64.277,-111.418Z" style="fill:#ffc733;"/><path d="M273.375,277.858c48.783,-48.783 100.27,-76.507 114.905,-61.872c14.635,14.635 -13.089,66.122 -61.872,114.905c-48.783,48.783 -100.27,76.506 -114.905,61.872c-14.635,-14.635 13.089,-66.122 61.872,-114.905Z" style="fill:#665854;"/><path d="M355.33,184.117c1.326,0.612 2.492,1.411 3.487,2.406c14.635,14.635 -13.089,66.122 -61.872,114.905c-48.783,48.783 -100.27,76.507 -114.905,61.872c-0.995,-0.995 -1.794,-2.161 -2.405,-3.487c18.137,8.361 65.952,-18.812 111.418,-64.278c45.465,-45.465 72.638,-93.28 64.277,-111.418Z" style="fill:#ef6a5d;"/><path d="M370.062,198.849c1.326,0.611 2.491,1.41 3.486,2.405c14.635,14.635 -13.089,66.122 -61.871,114.905c-48.783,48.783 -100.27,76.507 -114.905,61.872c-0.995,-0.995 -1.795,-2.161 -2.406,-3.487c18.138,8.362 65.952,-18.812 111.418,-64.277c45.466,-45.466 72.639,-93.281 64.278,-111.418Z" style="fill:#ffc733;"/><path d="M257.056,84.762l26.475,26.475c30.405,10.537 49.792,25.837 48.412,41.108c-2.163,23.933 -54.516,38.791 -116.837,33.159c-18.236,-1.648 -36.023,-4.965 -51.852,-9.657l-17.689,17.689c18.657,4.59 38.755,7.913 59.249,9.765c89.319,8.071 164.352,-13.223 167.452,-47.524c2.605,-28.834 -46.446,-57.739 -115.21,-71.015Z" style="fill:#ef6a5d;"/><path d="M150.368,176.948c6.911,-6.911 18.132,-6.911 25.043,-0c6.911,6.911 6.911,18.132 0,25.043c-6.911,6.911 -18.132,6.911 -25.043,-0c-6.911,-6.911 -6.911,-18.132 -0,-25.043Z" style="fill:#e8e9e8;"/></g><path d="M21.118,177.202c2.285,-15.323 18.087,-27.202 37.215,-27.202c13.766,-0 25.809,6.152 32.33,15.311c12.187,12.345 21.837,30.522 21.837,30.522c-0,0 -23.328,20.557 -42.249,24.389c-3.873,2.995 -8.731,4.778 -14.001,4.778c-0.335,0 -0.669,-0.007 -1.001,-0.022c1.92,12.818 3.084,29.592 3.084,47.939c0,5.976 -0.123,11.785 -0.356,17.349c0.231,6.958 0.356,14.441 0.356,22.234c0,36.794 -2.8,66.667 -6.25,66.667c-2.317,-0 -4.341,-13.482 -5.421,-33.492c-0.273,0.105 -0.55,0.158 -0.829,0.158c-3.366,0 -6.423,-7.777 -8.671,-20.415c-1.146,5.057 -2.448,7.915 -3.829,7.915c-1.916,0 -3.682,-5.511 -5.091,-14.768c-1.034,1.48 -2.121,2.268 -3.242,2.268c-6.899,0 -12.5,-29.872 -12.5,-66.666c-0,-20.362 1.715,-38.604 4.417,-50.837c-0.164,-1.75 -0.25,-3.56 -0.25,-5.413c-0,-8.307 1.729,-15.745 4.451,-20.715Z" style="fill:#ffc733;"/></g></svg>