<?xml version="1.0" encoding="UTF-8" standalone="no"?><!DOCTYPE svg PUBLIC "-//W3C//DTD SVG 1.1//EN" "http://www.w3.org/Graphics/SVG/1.1/DTD/svg11.dtd"><svg width="100%" height="100%" viewBox="0 0 417 417" version="1.1" xmlns="http://www.w3.org/2000/svg" xmlns:xlink="http://www.w3.org/1999/xlink" xml:space="preserve" xmlns:serif="http://www.serif.com/" style="fill-rule:evenodd;clip-rule:evenodd;stroke-linejoin:round;stroke-miterlimit:2;"><g><path d="M243.998,57.913c-82.698,0 -149.839,67.141 -149.839,149.839c0,82.698 67.141,149.839 149.839,149.839c82.698,-0 149.839,-67.141 149.839,-149.839c-0,-82.698 -67.141,-149.839 -149.839,-149.839Zm0,74.92c-41.349,-0 -74.919,33.57 -74.919,74.919c-0,41.349 33.57,74.919 74.919,74.919c41.349,0 74.92,-33.57 74.92,-74.919c-0,-41.349 -33.571,-74.919 -74.92,-74.919Z" style="fill:#675655;"/><clipPath id="_clip1"><path d="M243.998,57.913c-82.698,0 -149.839,67.141 -149.839,149.839c0,82.698 67.141,149.839 149.839,149.839c82.698,-0 149.839,-67.141 149.839,-149.839c-0,-82.698 -67.141,-149.839 -149.839,-149.839Zm0,74.92c-41.349,-0 -74.919,33.57 -74.919,74.919c-0,41.349 33.57,74.919 74.919,74.919c41.349,0 74.92,-33.57 74.92,-74.919c-0,-41.349 -33.571,-74.919 -74.92,-74.919Z"/></clipPath><g clip-path="url(#_clip1)"><rect x="56.7" y="-38.848" width="187.298" height="246.6" style="fill:#ffc733;"/><rect x="240.408" y="-38.848" width="187.298" height="246.6" style="fill:#e8675a;"/></g><path d="M93.543,249.964l-70.713,0c-0,0 87.925,108.789 108.789,108.789c20.864,0 108.789,-108.789 108.789,-108.789l-70.713,0l0,-42.212l-76.152,-0l-0,42.212Z" style="fill:#ffc733;"/></g></svg>